<?xml version="1.0" encoding="UTF-8" standalone="no"?>
<!-- Created with Inkscape (http://www.inkscape.org/) -->

<svg
   width="210mm"
   height="297mm"
   viewBox="0 0 210 297"
   version="1.1"
   id="svg22541"
   sodipodi:docname="800x130x70 (paper) ALL.svg"
   inkscape:export-filename="800x130x70 (paper).svg"
   inkscape:export-xdpi="300.12"
   inkscape:export-ydpi="300.12"
   xmlns:inkscape="http://www.inkscape.org/namespaces/inkscape"
   xmlns:sodipodi="http://sodipodi.sourceforge.net/DTD/sodipodi-0.dtd"
   xmlns="http://www.w3.org/2000/svg"
   xmlns:svg="http://www.w3.org/2000/svg">
  <sodipodi:namedview
     id="namedview26715"
     pagecolor="#ffffff"
     bordercolor="#666666"
     borderopacity="1.0"
     inkscape:showpageshadow="2"
     inkscape:pageopacity="0.0"
     inkscape:pagecheckerboard="0"
     inkscape:deskcolor="#d1d1d1"
     inkscape:document-units="mm"
     showgrid="false"
     showguides="true">
    <sodipodi:guide
       position="3.0000028,-51.054898"
       orientation="0,-1"
       id="guide26992"
       inkscape:locked="false" />
  </sodipodi:namedview>
  <defs
     id="defs22538" />
  <g
     id="layer1">
    <g
       id="g26873"
       transform="rotate(-90,46.499965,250.50013)">
      <path
         style="fill:none;stroke:#000000;stroke-width:0.865;stroke-linecap:butt;stroke-linejoin:miter;stroke-dasharray:none;stroke-opacity:1"
         d="m 464.0002,224.00018 h -2.0001 v 38.99979 h -33.9997 v 40.00023 h -32.0002 v -79.00002 l -2,-1e-5 v 70 h -2 V 314 h -126 v -19.99983 h -2 v -70 L 262,224.00001 v 38.99996 h -33.9997 v 40.00023 h -32.0002 v -79.00019 l -1.9999,1.7e-4 h -2 l -1,65.99999 H 73.000193 l -5,-65.99999 h -2 l -66.000100059082,-12 10e-7,-8.00001"
         id="path26867"
         sodipodi:nodetypes="ccccccccccccccccccccccccccccc" />
      <path
         id="path26869"
         style="fill:none;stroke:#000000;stroke-width:0.264583px;stroke-linecap:butt;stroke-linejoin:miter;stroke-opacity:1"
         d="m 464.0001,224.00017 v -2.99999 m -70,2.99999 v -2.99999 m -130,2.99999 v -2.99999 m -70,2.99999 v -2.99999 m -128.000007,2.99999 v -2.99999" />
    </g>
  </g>
</svg>
